<?xml version="1.0" encoding="utf-8"?>
<!-- Generator: Adobe Illustrator 18.0.0, SVG Export Plug-In . SVG Version: 6.00 Build 0)  -->
<!DOCTYPE svg PUBLIC "-//W3C//DTD SVG 1.1//EN" "http://www.w3.org/Graphics/SVG/1.1/DTD/svg11.dtd">
<svg version="1.1" xmlns="http://www.w3.org/2000/svg" xmlns:xlink="http://www.w3.org/1999/xlink" x="0px" y="0px"
	 viewBox="459.6 162 318.1 282.6" enable-background="new 459.6 162 318.1 282.6" xml:space="preserve">
<g id="ĺžĺą_3">
	<path fill="#B17720" d="M566.6,443.2c-2.5,0-5,0-7.5,0c-0.1-7.9-0.3-15.8-0.4-23.7v-0.3c2.6,0.1,5.2,0,7.7-0.1
		C566.4,427,566.5,435.3,566.6,443.2z"/>
	<path fill="#B17720" d="M558.7,419.5c0.1,7.9,0.3,15.8,0.4,23.7c-2.5,0-5,0-7.5-0.1c0.2-8.1-0.4-16.2-0.2-24.3
		c2.3,0.2,4.8,0.3,7.2,0.4L558.7,419.5z"/>
	<path fill="#4B4538" d="M572.8,423.5c-1.4,0-2.8,0-4.2,0c0-1.1,0-2.2,0-3.3c1.4-0.1,2.5,0,4,0C572.6,421.1,572.7,422.6,572.8,423.5
		z"/>
	<path fill="#4B4538" d="M610,408.3c-1.1,0-2.2,0.1-3.3,0.1c-1,0-1.9,0.1-2.8,0.1h-0.5c-0.1-2-0.1-4-0.2-6c3-0.1,6.7-0.4,9.7-0.5
		c0,1.8,0,4.1,0,6.2h-0.2C611.8,408.2,610.9,408.2,610,408.3z"/>
	<path fill="#4B4538" d="M610,408.3c0.9,0,1.8-0.1,2.7-0.1h0.2c0,0.6,0,1.3,0,1.8l0.1,0.3c-2.1,1.1-4.2,2.3-6.3,3.4l-0.1-0.2
		c0-1.7,0-3.4,0-5.1C607.8,408.4,608.9,408.3,610,408.3z"/>
	<path fill="#7B391F" d="M775.9,407.2c0.6,9.8,0.5,19.4-0.1,29.3c-6,0.3-11.8,0.5-17.7,0.5c0.1-10.3,0.2-20.7,0.3-31v-0.1
		c0.1,0,0.3,0,0.4,0v0.1c5.7,0.1,11.3,0.2,17,0.3L775.9,407.2z M773.5,414.8c0-1.3,0.3-2.5,0.3-3.8c-1.3,0-2.7-0.3-4-0.3
		c0,1.4,0,2.8,0,4.3C770.9,414.7,772.3,414.7,773.5,414.8z M766.8,415.4c0-1.4,0-3.2,0-4.6c-1.6,0.1-3.2-0.3-4.8-0.2
		c0,1.7,0,3.3,0,5C763.7,415.4,765.1,415.5,766.8,415.4z"/>
	<path fill="#7B391F" d="M775.8,406.1v0.1c-5.7-0.1-11.3-0.2-17-0.3v-0.1c0.5-0.1,1-0.1,1.5-0.1c-6.5-1.8-13.3-4.5-19.5-7.2v-0.4
		c5.5,0.6,11,1.3,16.5,2.1v0.2C763.4,402.5,769.6,404.4,775.8,406.1z"/>
	<path fill="#4B4538" d="M773.8,411c0,1.3-0.3,2.5-0.3,3.8c-1.2-0.1-2.6,0-3.8,0.3c0-1.4,0-2.8,0-4.3
		C771.1,410.8,772.4,411,773.8,411z"/>
	<path fill="#4B4538" d="M766.8,410.7c0,1.4,0,3.2,0,4.6c-1.7,0.1-3.1,0-4.8,0.1c0-1.7,0-3.3,0-5
		C763.6,410.4,765.2,410.8,766.8,410.7z"/>
	<path fill="#472911" d="M758.3,405.9v0.1c-0.1,10.3-0.2,20.7-0.3,31c-10.9,0.1-21.8-0.3-32.8-0.5c0-0.1,0-0.3,0-0.5
		c0-3.8,0-7.6,0-11.4c0-3.3,0-6.7,0-10c0-0.8,0-1.6,0-2.3c0-1.2,0-2.4-0.1-3.6v-0.2c-1,0-2.1,0.1-3.1,0c4-2.1,7.9-4.3,11.8-6.4
		c2.3-1.2,4.6-2.5,6.9-3.7c6.2,2.7,13,5.4,19.5,7.2c-0.5,0-1,0.1-1.5,0.1C758.6,405.8,758.5,405.9,758.3,405.9z M746.8,415.1
		c0-1.7-0.3-4.2-0.3-5.9c-3.3,0.1-6.7,0.3-10,0c0,2.2,0,4.3,0,6.5c2.5,0,5.2-0.2,7.6-0.3C745,415.5,746,415.5,746.8,415.1z"/>
	<path fill="#4B4538" d="M746.5,409.2c0,1.7,0.3,4.2,0.3,5.9c-0.8,0.4-1.8,0.4-2.7,0.4c-2.5,0-5.2,0.2-7.6,0.3c0-2.2,0-4.3,0-6.5
		C739.8,409.6,743.2,409.4,746.5,409.2z"/>
	<path fill="#7B391F" d="M627.3,406.4c20-1,40.1-1.8,60.1-2.5c15.4-0.6,30.9-0.9,46.3-2l0.1,0.2c-3.9,2.1-7.9,4.3-11.8,6.4v0.1
		c-9.6,0.4-19.1,0.8-28.7,1.2c-0.8,0-1.7,0.1-2.5,0.1c-9.8,0.4-19.6,0.8-29.3,1.3c-0.8,0-1.5,0.1-2.3,0.1
		c-8.7,0.4-17.5,0.8-26.2,1.1l-1.3-0.1c0.4,0,0.8-0.1,1.1-0.1c-3.9-1.5-8.1-3.6-11.8-5.5c1.7-0.1,3.4-0.2,5-0.3
		C626.5,406.5,626.9,406.5,627.3,406.4z"/>
	<path fill="#4B4538" d="M725.2,414.7c0,3.3,0.1,6.7,0,10H725c-1.2,0-2.8-0.1-4.1-0.1c-0.1-1.2-0.1-2.5-0.2-3.7
		c-0.1-2-0.2-4-0.3-6.1c1.4,0,3.1-0.2,4.5-0.2h0.3V414.7z"/>
	<path fill="#948158" d="M725.3,424.7c0,3.8,0,7.6,0,11.4h-0.5c-2.2,0.1-4.4,0.2-6.5,0.3c-0.4-7.9-0.3-15.8-0.6-23.7
		c2.5,0,4.9-0.3,7.4-0.3h0.2c0,0.8,0,1.6,0,2.3H725c-1.4,0-3.1,0.2-4.5,0.2c0.1,2,0.2,4,0.3,6.1c0.1,1.2,0.1,2.5,0.2,3.7
		c1.2,0,2.8,0.1,4.1,0.1h0.2V424.7z"/>
	<path fill="#615130" d="M725.1,408.8c0,1.2,0,2.4,0.1,3.6H725c-2.5,0-4.9,0.3-7.4,0.3c0.3,7.9,0.2,15.8,0.6,23.7
		c-2.6,0.1-5.1,0.3-7.7,0.4c0.1-7.6-0.1-15.9,0-23.5c-3.6-0.1-7,0-10.6,0c-0.2,7.9-0.1,15.8,0.3,23.7v0.2c-2.1,0-4.3,0-6.4,0v-0.3
		c-0.1-9-0.3-17.9-0.4-26.9c9.5-0.4,19.1-0.8,28.7-1.2v-0.1C723.1,408.7,724.1,408.7,725.1,408.8L725.1,408.8z"/>
	<path fill="#948158" d="M710.5,413.2c-0.1,7.6,0.1,15.9,0,23.5c-3.5,0.2-6.9,0.3-10.4,0.3v-0.2c-0.4-7.9-0.4-15.8-0.3-23.7
		C703.5,413.2,706.9,413.2,710.5,413.2z M707.7,425.3c-0.1-3.2-0.1-7-0.2-10.2c-1.4-0.1-3.2,0-4.6,0.2c0.1,3.3,0.3,6.6,0.4,9.8
		C704.6,425.5,706.5,425.8,707.7,425.3z"/>
	<path fill="#4B4538" d="M707.5,415.2c0.1,3.2,0.2,7,0.2,10.2c-1.3,0.4-3.1,0.1-4.4-0.2c-0.1-3.3-0.3-6.6-0.4-9.8
		C704.3,415.1,706.1,415.1,707.5,415.2z"/>
	<path fill="#FCE3C1" d="M693.7,436.8v0.3c-0.6,0-1.2,0-1.8,0c-0.2,0-0.4,0-0.6,0c-0.1-9-0.3-18-0.5-27c0.8,0,1.7-0.1,2.5-0.1
		C693.5,418.9,693.6,427.9,693.7,436.8z"/>
	<path fill="#615130" d="M690.8,410c0.1,9,0.3,18,0.5,27c-4.2-0.1-8.5-0.2-12.7-0.2v-0.1c-0.2-7.3-0.8-15-1-22.3
		c-3.2-0.2-6.6,0-9.7,0.3c0.7,7.3,0.4,14.7,0.6,22l0,0c-2.1,0-4.3,0-6.4,0l0,0c-0.2-8.4-0.4-16.8-0.7-25.2v-0.2
		C671.3,410.9,681.1,410.4,690.8,410z"/>
	<path fill="#948158" d="M678.6,436.7L678.6,436.7c-3.3,0.1-6.7,0-10,0l0,0c-0.2-7.3,0.1-14.7-0.6-22c3.2-0.4,6.6-0.5,9.7-0.3
		C677.9,421.7,678.4,429.3,678.6,436.7z M674.8,425.7c-0.1-2.5,0-6.4-0.2-8.9c-1.1-0.1-2.5-0.1-3.6,0.1c0.2,3,0.3,6,0.5,9
		C672.5,425.7,673.8,425.6,674.8,425.7z"/>
	<path fill="#4B4538" d="M674.7,416.7c0.1,2.6,0,6.4,0.2,8.9c-1-0.1-2.3,0-3.3,0.1c-0.1-3-0.3-6-0.5-9
		C672.1,416.6,673.6,416.6,674.7,416.7z"/>
	<path fill="#FFFDFB" d="M579.8,243c1.5-4.1,2.8-8.2,4-12.4c30-9.3,59.5-18.3,89.5-27.6c0.6,4.9,1.3,10.1,2.6,14.9
		c-30.6,9.2-61.2,18.2-91.9,27c-1.8,0.5-3.7,1.1-5.5,1.6C579,245.3,579.4,244.2,579.8,243z"/>
	<path fill="#FCE3C1" d="M662.2,436.7L662.2,436.7c-0.6,0-1.3,0-1.9,0c-0.2,0-0.5,0-0.7,0c0.1-8.4,0-16.8-0.4-25.2v-0.1
		c0.8,0,1.5-0.1,2.3-0.1v0.2C661.8,419.9,662,428.3,662.2,436.7z"/>
	<path fill="#615130" d="M659.2,411.5c0.4,8.4,0.5,16.8,0.4,25.2c-8.7,0.1-17.5,1.1-26.1,1.3v-0.2c0.2-8.3-0.1-16.7-0.5-25l-2.4-0.2
		c0.4-0.1,0.8-0.1,1.2-0.1l1.3,0.1c8.7-0.4,17.5-0.8,26.2-1.1L659.2,411.5z"/>
	<path fill="#03080D" d="M630.1,398.3c1.6,0.2,3.2,0.4,4.8,0.6c1.7,0.2,3.4,0.4,5.1,0.6c0,0.1,0,0.1,0,0.2v0.3c-0.2,0-0.5,0-0.7,0
		c-4.6,0-9.1,0-13.7,0c-10.9,0-21.8-0.1-32.7-0.2c0.9-1.3,1.9-2.6,2.9-3.9c0.2,0,0.4,0,0.7,0c1.7,0,3.5,0,5.2,0c2,0,4.1,0.1,6.1,0.2
		s4.1,0.3,6.2,0.4c2,0.2,4,0.4,6,0.6c2,0.2,4.1,0.5,6.1,0.7C627.4,397.9,628.8,398.1,630.1,398.3z"/>
	<path fill="#4B4538" d="M594,369.9c13.8,2.4,27.7,4.2,41.7,5.5c0.1,0,0.2,0,0.3,0v0.8c-3.8,0.7-6.6,2.4-10.4,2
		c-0.1,0-0.3,0-0.4-0.1c-5.8-0.8-11.6-1.7-17.4-2.5c-3-0.4-6-0.9-9-1.6c-3.4-0.8-6.5-1.2-9.9-1.3c-0.1,0-0.2,0-0.4,0
		c-11.2-0.5-22.4-0.7-33.6-0.6v-2c12.9-0.1,25.8-0.1,38.7-0.2C593.8,369.9,593.9,369.9,594,369.9z"/>
	<path fill="#965126" d="M635.8,375.2v0.2c-14-1.3-27.9-3.1-41.7-5.5c-2.7-7.4-4.8-14.9-6.3-22.6l-0.1-0.4c2.1-0.3,4.1-0.6,6.1-1
		c-4.8-26-9.3-52-12.7-78.2c-0.3-0.1-0.5-0.1-0.7-0.1c-0.3-1.6-0.6-3.1-0.9-4.6v-0.2c0.3,0,0.6,0,0.9,0c0,0,0,0,0.1,0
		c5.6-0.1,11,1.5,16.4,3.3l-0.1,0.2c0.4,1.6,0.8,3.2,1.2,4.7c1.8,7.2,3.7,14.3,5.6,21.5c2,7.4,4,14.8,6,22.1
		c4.2,15,7.2,31.4,14.9,45.1C627.5,365.3,631.7,370.3,635.8,375.2z"/>
	<path fill="#592B15" d="M621,406.8c3.7,2,7.9,4,11.8,5.5c-0.4,0-0.8,0.1-1.1,0.1c-0.4,0-0.8,0.1-1.2,0.1l2.4,0.2
		c0.5,8.3,0.7,16.7,0.5,25v0.2c-0.9,0-1.8,0-2.7,0c-6.2,0-12.8,0.4-19.1,0.5c-0.7,0-1.4,0-2,0c-0.3-8.2-0.7-16.5-1-24.7
		c-0.9,0.1-1.8,0.3-2.6,0.3c0.2-0.1,0.5-0.3,0.7-0.4c2.1-1.1,4.2-2.3,6.3-3.4c2.4-1.3,4.9-2.6,7.3-3.9
		C620.5,406.5,620.8,406.6,621,406.8z M626.8,432.3c0.1-2.2,0.1-4.5,0.1-6.7c0-2.2-0.2-4.4-0.4-6.5c-2,0.1-3.8,0.1-5.5,0.1
		c-2,0-3.9-0.1-6-0.2c0,2.1,0.1,4.2,0.1,6.3c0,2.2,0.1,4.5,0.1,6.7c0.6,0.1,1.5,0.1,2.1,0.1c1.3,0.1,2.6,0.1,3.9,0.1
		C623,432.2,624.8,432.2,626.8,432.3z"/>
	<path fill="#4B4538" d="M626.9,425.6c0,2.3,0,4.5-0.1,6.7c-2-0.1-3.8-0.1-5.7-0.1V432c0-2.1-0.1-4.2-0.1-6.3
		C623,425.8,624.9,425.7,626.9,425.6L626.9,425.6z"/>
	<path fill="#4B4538" d="M626.9,425.6L626.9,425.6c-2,0.1-3.9,0.1-5.8,0.1c0-2.2,0-4.4-0.1-6.5c1.8,0,3.6,0,5.5-0.1
		C626.7,421.2,626.8,423.4,626.9,425.6z"/>
	<path fill="#FCE3C1" d="M625.9,390.6c0,2.3,0.1,4.5,0.2,6.8v0.4c-2-0.2-4.1-0.5-6.1-0.7v-0.4c0.2-3.9,0.1-7.8-0.3-11.7v-0.4
		c2,0.2,4.1,0.4,6.1,0.5C625.8,386.9,625.9,388.8,625.9,390.6z"/>
	<path fill="#FCE3C1" d="M603.4,408.5h0.5c1,0,1.9-0.1,2.8-0.1c0,1.7,0,3.4,0,5.1l0.1,0.2c-0.2,0.1-0.5,0.3-0.7,0.4
		c0.8,0,1.7-0.1,2.6-0.3c0.3,8.2,0.7,16.5,1,24.7c0.7,0,1.3,0,2,0v0.3c-7.3,2.1-15.1,4-22.7,4.2v-0.9c-0.5-11.8-0.7-23.6-0.7-35.4
		h0.3c1.4-2.3,2.8-4.6,4.4-6.8c10.9,0.1,21.8,0.1,32.7,0.2v0.4c0.1,2,0.3,4,0.4,6v0.2c-1.7,0.1-3.4,0.2-5,0.3
		c-0.2-0.1-0.5-0.3-0.7-0.4c-2.4,1.3-4.9,2.6-7.3,3.9l-0.1-0.3c0-0.6,0-1.2,0-1.8c0-2,0-4.4,0-6.2c-3,0.1-6.7,0.4-9.7,0.5
		C603.2,404.5,603.3,406.5,603.4,408.5z"/>
	<path fill="#FCE3C1" d="M596.3,382.4c-2.1-0.1-4.2-0.2-6.3-0.1c-0.3,0-0.7,0-1,0c0-3.1,0-6.2,0-9.3v-0.2c3.4,0.2,6.5,0.6,9.9,1.3
		c3,0.7,6,1.1,9,1.6c5.8,0.8,11.6,1.7,17.4,2.5c0.1,0,0.3,0,0.4,0.1v0.4c0.1,2.1,0.1,4.3,0.2,6.4c-2-0.2-4.1-0.4-6.1-0.5
		c-1.9-0.2-3.8-0.3-5.7-0.5c-2.2-0.2-4.5-0.4-6.7-0.6c-1.9-0.2-3.7-0.4-5.6-0.6c-1.1-0.1-2.1-0.2-3.2-0.3
		C597.8,382.5,597.1,382.4,596.3,382.4z"/>
	<path fill="#4B4538" d="M621.1,432v0.2c-1.3,0-2.6,0-3.9-0.1c-0.6,0-1.5,0-2.1-0.1c0-2.2-0.1-4.5-0.1-6.7h0.2
		c2,0.2,3.9,0.4,5.9,0.4C621,427.8,621.1,429.9,621.1,432z"/>
	<path fill="#4B4538" d="M621,419.2c0,2.2,0,4.3,0.1,6.5c-2,0-3.9-0.2-5.9-0.4H615c0-2.1-0.1-4.2-0.1-6.3
		C617,419.1,619,419.2,621,419.2z"/>
	<path fill="#FCE3C1" d="M619.6,385c0.4,3.9,0.5,7.8,0.3,11.7v0.4c-2-0.2-4-0.4-6-0.6l0.1-0.8c0-3.9,0-7.7,0-11.6
		c1.9,0.2,3.8,0.3,5.7,0.5L619.6,385z"/>
	<path fill="#FCE3C1" d="M614,384.1c0,3.9,0,7.7,0,11.6l-0.1,0.8c-2.1-0.2-4.1-0.3-6.2-0.4v-0.7c-0.2-3.9-0.3-7.8-0.5-11.7v-0.2
		C609.5,383.6,611.8,383.9,614,384.1z"/>
	<path fill="#FCE3C1" d="M607.3,383.7c0.2,3.9,0.3,7.8,0.5,11.7v0.7c-2-0.1-4.1-0.2-6.1-0.2v-0.8c0-3.8,0-7.6,0-11.3l0.1-0.8
		C603.7,383.2,605.5,383.4,607.3,383.7L607.3,383.7z"/>
	<path fill="#FCE3C1" d="M601.8,382.9l-0.1,0.8c0,3.8,0,7.5,0,11.3v0.8c-1.7,0-3.5,0-5.2,0c-0.2,0-0.5,0-0.7,0
		c0-0.1,0.1-0.1,0.2-0.2l0.4-0.3c0-4.3,0-8.6,0-13c0.8,0,1.5,0.1,2.3,0.2C599.6,382.7,600.7,382.8,601.8,382.9z"/>
	<path fill="#965126" d="M598.6,266.7L598.6,266.7c-0.6-0.2-1.3-0.4-1.9-0.6c-5.3-1.8-10.8-3.5-16.4-3.3c0,0,0,0-0.1,0V262
		c-0.5-5-1.2-9.9-2-14.8c0.1-0.2,0.2-0.5,0.3-0.7c1.8-0.5,3.7-1,5.5-1.6l0,0c3,0.6,6,1.1,9,1.7C594.9,253.2,596.7,260.1,598.6,266.7
		z"/>
	<path fill="#FCE3C1" d="M596.3,382.4c0,4.3,0,8.7,0,13l-0.4,0.3c-0.1,0.1-0.1,0.1-0.2,0.2c-1.9,0-3.8,0.1-5.8,0.1v-0.7
		c0-4.2,0-8.4,0-12.7v-0.4C592.1,382.2,594.2,382.2,596.3,382.4z"/>
	<path fill="#965126" d="M593.7,369.9c-12.9,0.1-25.8,0.1-38.7,0.2c-10.2,0-20.3,0.1-30.5,0.1c8.7-14.5,13-31.3,16.3-47.7
		c3.8-18.9,7.5-37.9,10.3-57c1.1-0.2,2.3-0.2,3.7-0.4c3.3-0.3,6.7-0.7,10.1-1.1c0.1,0.7,0.2,1.3,0.3,2c1.8,10.3,3.6,20.6,5.5,30.9
		c3.1,17.1,5.3,34.3,8.8,51.3h0.2c2.6-0.5,5.3-0.9,7.9-1.3l0.1,0.4c1.6,7.7,3.7,15.3,6.3,22.6C593.9,369.9,593.8,369.9,593.7,369.9z
		 M568.3,322.5c0-3.1,0.3-8,0.3-11.1c-1.6,0-3.1,0.1-4.7,0.2c-1.5,0.1-3,0.2-4.4,0.3c-1.4,0.1-2.8,0.3-4.2,0.4c0,1.8,0,3.6,0,5.4
		c0,1.9,0,3.8,0,5.6c2.6-0.2,5.7-0.3,8.7-0.5C565.5,322.7,567,322.6,568.3,322.5z"/>
	<path fill="#03080D" d="M583.3,396.1c2.2,0,4.5-0.1,6.7-0.1c1.9,0,3.8-0.1,5.8-0.1c-1,1.3-2,2.6-2.9,3.9c-1.5,0-3.1,0-4.7,0
		c-21.6-0.1-43.2-0.1-64.8,0.5c-1.6-1.1-3.3-2.1-4.9-3.2c1.5-0.3,2.9-0.4,4.5-0.4c0.6,0,1.3,0,2,0c1.1,0,2.2,0,3.4-0.1
		c1.8,0,3.6,0,5.3,0c2,0,4,0,6,0c2.1,0,4.3,0,6.4,0c1,0,2,0,3,0c1.1,0,2.2,0,3.3,0c2,0,3.9,0,5.9,0c2.1,0,4.2,0,6.3-0.1
		c2.2,0,4.5,0,6.7-0.1c2.1,0,4.2-0.1,6.3-0.1C579.6,396.2,581.5,396.2,583.3,396.1z"/>
	<path fill="#FCE3C1" d="M588.2,399.8c1.5,0,3.1,0,4.7,0c-1.5,2.2-3,4.5-4.4,6.8h-0.3c0-2.2,0-4.4,0-6.6V399.8z"/>
	<path fill="#FCE3C1" d="M589,382.3c0.3,0,0.7,0,1,0v0.4c0,4.2,0,8.4,0,12.7v0.7c-2.2,0.1-4.5,0.1-6.7,0.1c0-4.3,0-8.5,0-12.8v-0.8
		C585.2,382.4,587.1,382.3,589,382.3z"/>
	<path fill="#FCE3C1" d="M571.3,383.4c-0.4,0-0.7,0-1.1,0c-2,0-4,0.1-5.9,0.1c-2,0-4,0.1-6,0.1c-2.1,0-4.2,0.1-6.4,0.1
		c-2.1,0-4.2,0.1-6.3,0.1c-1.6,0-3.3,0.1-4.9,0.1c-0.4,0-0.7,0-1.1,0c-2,0-4,0.1-6,0.1c-1.8,0-3.5,0.1-5.3,0.1c0-3.6,0-7.3,0-10.9
		v-0.1c0.7-0.2,1.4-0.3,2-0.4c6.4-1,13.3-0.5,19.7-0.6c1.7,0,3.4,0,5-0.1c11.2-0.1,22.4,0.1,33.6,0.6c0.1,0,0.2,0,0.4,0v0.2
		c0,3.1,0,6.2,0,9.3c-1.9,0.1-3.8,0.2-5.7,0.3c-1.9,0.1-3.8,0.3-5.7,0.4C575.5,383.2,573.4,383.3,571.3,383.4z"/>
	<path fill="#FCE3C1" d="M528.4,403.5L528.4,403.5c-1.7-1.1-3.3-2.2-5-3.2c21.6-0.6,43.2-0.6,64.8-0.5v0.2c0,2.2,0,4.4,0,6.6
		c0,11.8,0.2,23.6,0.7,35.4v0.9c-0.1,0-0.1,0-0.2,0c-7.4,0.2-14.8,0.3-22.2,0.3c-0.1-7.9-0.2-16.2-0.3-24.1
		c-2.5,0.1-5.1,0.1-7.7,0.1c-2.4-0.1-4.9-0.2-7.2-0.4c-0.2,8.1,0.4,16.2,0.2,24.3c-5.5-0.1-10.9-0.2-16.4-0.3
		c-0.5-3.3-0.3-6.3-0.3-9.7c-1.2-1.6-2.5-3.2-3.9-4.8c-0.8-0.9-1.5-1.8-2.3-2.7C528.6,418.3,528.5,410.9,528.4,403.5z M568.7,423.5
		c1.4,0,2.8,0,4.2,0c-0.2-0.9-0.2-2.4-0.2-3.3c-1.4,0-2.5-0.1-4,0C568.7,421.3,568.7,422.4,568.7,423.5z M565.5,414.3
		c-0.1-2.3-0.3-4.6-0.5-6.9c-0.2-2-0.3-4.1-0.4-6.1c-3.6,0.1-7.3,0.3-10.9,0.4c-1,0-1.9-0.5-2.8-0.3c0,2.2,0.1,4.4,0.1,6.5
		s0.1,4.3,0.1,6.5c1.7,0,3.4,0,5.1-0.1C559.4,414.4,562.5,414.4,565.5,414.3z"/>
	<path fill="#FFFDFB" d="M580.3,267.6c0.3,0,0.5,0.1,0.7,0.1c3.4,26.2,7.9,52.2,12.7,78.2c-2,0.4-4,0.7-6.1,1
		c-2.7,0.4-5.4,0.8-7.9,1.3h-0.2c-3.5-17-5.7-34.2-8.8-51.3c-1.9-10.3-3.7-20.6-5.5-30.9C570.3,266.2,575.3,266.7,580.3,267.6z"/>
	<path fill="#FCE3C1" d="M583.3,383.3c0,4.3,0,8.5,0,12.8c-1.9,0-3.8,0.1-5.7,0.1v-0.6c0-4,0-8,0-12v-0.7c1.9-0.1,3.8-0.3,5.7-0.4
		V383.3z"/>
	<path fill="#965126" d="M579.4,263c0.3,1.6,0.6,3.1,0.9,4.6c-5-0.9-10-1.4-15-1.6c-0.1-0.6-0.2-1.3-0.3-2c4.8-0.5,9.7-1.1,14.4-1.3
		L579.4,263z"/>
	<path fill="#965126" d="M578.3,247.2c0.8,4.9,1.4,9.9,2,14.8v0.8c-0.3,0-0.6,0-0.9,0c-4.8,0.2-9.6,0.7-14.4,1.3
		c-0.8-4.3-1.5-8.7-2.2-13.1c5.2-1.5,10.3-2.9,15.5-4.4C578.2,246.8,578.3,247,578.3,247.2z"/>
	<path fill="#965126" d="M577.5,242.7c0.2,1.3,0.4,2.6,0.7,3.9c-5.2,1.5-10.3,3-15.5,4.4c-0.3-2-0.6-3.9-1-5.9
		c0-0.2-0.1-0.4-0.1-0.6c5.1-0.6,10.2-1.3,15.3-1.8C577.2,242.7,577.4,242.7,577.5,242.7z"/>
	<path fill="#FCE3C1" d="M577.7,395.7v0.6c-2.1,0-4.2,0.1-6.3,0.1V396c0-4.2,0-8.4,0-12.6c2.1-0.1,4.2-0.2,6.3-0.4v0.7
		C577.7,387.7,577.7,391.7,577.7,395.7z"/>
	<path fill="#FCE3C1" d="M571.3,396v0.3c-2.2,0-4.5,0.1-6.7,0.1v-0.1c0.2-4.2,0.1-8.4-0.3-12.7v-0.1c2,0,4-0.1,5.9-0.1
		c0.4,0,0.7,0,1.1,0C571.3,387.6,571.3,391.8,571.3,396z"/>
	<path fill="#4B4538" d="M564,316.8c0-1.6,0-3.2,0-4.8v-0.4c1.6-0.1,3.1-0.2,4.7-0.2c0,3.1-0.3,8-0.3,11.1c-1.4,0.1-2.8,0.2-4.3,0.3
		v-0.1C564,320.7,564,318.7,564,316.8z"/>
	<path fill="#4B4538" d="M560.5,407.8c1.5-0.1,3-0.2,4.5-0.3h0.1c0.2,2.3,0.4,4.6,0.5,6.9c-3,0.1-6.2,0.1-9.3,0.1V414
		c0.1-2,0.1-4,0.1-6C557.7,407.9,559.1,407.9,560.5,407.8z"/>
	<path fill="#4B4538" d="M560.5,407.8c-1.4,0.1-2.8,0.2-4.2,0.2c-1.6,0.1-3.1,0.1-4.7,0.1H551c0-2.2-0.1-4.4-0.1-6.5
		c1-0.2,1.8,0.3,2.8,0.3c3.6-0.1,7.2-0.3,10.9-0.4c0.1,2,0.3,4,0.4,6.1h-0.1C563.5,407.6,562,407.7,560.5,407.8z"/>
	<path fill="#FCE3C1" d="M564.3,383.7c0.4,4.2,0.5,8.4,0.3,12.7v0.1c-2.1,0-4.2,0-6.3,0.1V396c0-4,0-8,0-12v-0.3c2,0,4-0.1,6-0.1
		V383.7z"/>
	<path fill="#4B4538" d="M559.8,317.1c1.4-0.1,2.8-0.3,4.2-0.3c0,2,0,3.9,0,5.9v0.1c-2.9,0.2-6,0.3-8.7,0.5c0-1.9,0-3.8,0-5.6l0,0
		C556.8,317.5,558.3,317.3,559.8,317.1z"/>
	<path fill="#4B4538" d="M564,312c0,1.6,0,3.2,0,4.8c-1.4,0.1-2.8,0.2-4.2,0.3c-0.1-1.6-0.1-3.2-0.2-4.8v-0.4c1.5-0.1,3-0.3,4.4-0.3
		V312z"/>
	<path fill="#965126" d="M551.2,265.5c-0.9,0.1-1.8,0.4-2.7,0.8c1-4,1.9-8,2.9-12c3.8-1.1,7.6-2.2,11.4-3.3
		c0.7,4.4,1.5,8.7,2.2,13.1c-3.4,0.4-6.8,0.8-10.1,1.1C553.4,265.2,552.2,265.3,551.2,265.5z"/>
	<path fill="#965126" d="M561.8,245.1c0.3,2,0.6,3.9,1,5.9c-3.8,1.1-7.6,2.2-11.4,3.3c0.7-2.8,1.3-5.5,2-8.3l-0.3-0.3
		c0.1-0.1,0.2-0.2,0.3-0.3c2.8-0.3,5.5-0.6,8.3-0.9C561.7,244.7,561.7,244.9,561.8,245.1z"/>
	<path fill="#FFFDFB" d="M548.5,163.1c4,24.6,8,49.2,12,73.8c-4.9-0.1-9.9,0.6-14.9,0.5c-4.5-22.7-7.4-46.2-10.2-69.2
		C539.7,166.2,544,164.5,548.5,163.1z"/>
	<path fill="#4B4538" d="M559.6,312.3c0.1,1.6,0.1,3.2,0.2,4.8c-1.5,0.2-3,0.4-4.5,0.6l0,0c0-1.8,0-3.6,0-5.4
		c1.4-0.1,2.8-0.3,4.2-0.4L559.6,312.3z"/>
	<path fill="#FCE3C1" d="M558.3,396v0.5c-2,0-4,0-5.9,0V396c-0.1-3.8-0.3-7.6-0.4-11.3v-0.9c2.1,0,4.2-0.1,6.4-0.1v0.3
		C558.3,388,558.3,392,558.3,396z"/>
	<path fill="#4B4538" d="M556.3,408c0,2,0,4-0.1,6v0.4c-1.7,0-3.4,0-5.1,0.1c0-2.1-0.1-4.3-0.1-6.5h0.6
		C553.2,408,554.8,408,556.3,408z"/>
	<path fill="#4B4538" d="M524.6,370.2c10.2,0,20.3-0.1,30.5-0.1v2c-1.7,0-3.4,0-5,0.1c-6.4,0.1-13.4-0.3-19.7,0.6
		c-0.7,0.1-1.4,0.2-2,0.4c-4.6,1.1-9.1,3.7-13.5,5.4c-0.7,0.3-1.3,0.4-1.9,0.6c-2.7,0.6-5,0.3-8.2-0.1l-0.1-0.2
		c6.6-2.9,13.1-5.8,19.7-8.7l0,0C524.4,370.2,524.5,370.2,524.6,370.2z"/>
	<path fill="#965126" d="M553,245.7l0.3,0.3c-0.7,2.8-1.3,5.5-2,8.3c-1.8,0.5-3.7,1-5.5,1.6c-0.8,0.2-1.6,0.5-2.4,0.7l-0.1-0.5
		c0-0.8,0-1.5,0.1-2.2C546.8,251.3,550,248.6,553,245.7z"/>
	<path fill="#FCE3C1" d="M552.4,396v0.5c-1.1,0-2.2,0-3.3,0c-1,0-2,0-3,0v-1.2c-0.1-3.6-0.3-7.1-0.4-10.7v-0.7
		c2.1,0,4.2-0.1,6.3-0.1v0.9C552.1,388.4,552.3,392.2,552.4,396z"/>
	<path fill="#965126" d="M551.3,254.3c-1,4-1.9,8-2.9,12c-0.8,0.3-1.6,0.8-2.4,1.5c-1.7,1.3-3.3,2.7-4.9,4.2
		c-0.9,0.9-1.9,1.8-2.8,2.7c0.2-1,0.3-2,0.2-3c0.9-0.3,1.8-0.5,2.7-0.8c1.2-5.2,2.5-10,4.5-15v-0.1
		C547.7,255.3,549.5,254.8,551.3,254.3z"/>
	<path fill="#965126" d="M548.5,266.2c0.9-0.4,1.7-0.6,2.7-0.8c-2.8,19.1-6.5,38.1-10.3,57c-3.3,16.4-7.6,33.2-16.3,47.7
		c-0.1,0-0.2,0-0.3,0l0,0c-6.6,2.9-13.1,5.8-19.7,8.7c-0.1,0.1-0.3,0.1-0.4,0.2l-0.1-0.3c5.1-7.5,10.1-15.2,13.6-23.6
		c3.4-8,5-16.8,7.3-25.2c3.9-13.8,7.8-27.5,11.6-41.3c1.2-4.2,2.3-8.3,3.5-12.5c0.4-1.4,0.8-2.8,1.2-4.2l-0.1-0.1
		c1.6-1.5,3.2-2.9,4.9-4.2C546.9,267,547.7,266.6,548.5,266.2z"/>
	<path fill="#FCE3C1" d="M546.1,395.3v1.2c-2.1,0-4.3,0-6.4,0v-0.8c0-3.7,0-7.3,0-11v-0.6c0.4,0,0.7,0,1.1,0c1.6,0,3.3-0.1,4.9-0.1
		v0.7C545.8,388.2,546,391.8,546.1,395.3z"/>
	<path fill="#FFFDFB" d="M538.7,271.7c-3.6,1-7.2,2-10.8,3c-21.5,5.9-42.9,11.5-64.6,17c-0.9-4-1.7-8.1-2.3-12.1
		c9.1-2.5,18.1-5,27.2-7.6c9.5-2.7,19-5.3,28.5-8c9-2.5,17.9-5,26.8-7.6c0.8-0.2,1.6-0.4,2.4-0.7v0.1c-2,5-3.3,9.7-4.5,15
		C540.5,271.2,539.6,271.4,538.7,271.7z"/>
	<path fill="#FCE3C1" d="M539.7,395.7v0.8c-2,0-4,0-6,0v-0.9c0-3.6,0-7.1,0-10.7v-0.8c2,0,4-0.1,6-0.1v0.6
		C539.7,388.3,539.7,392,539.7,395.7z"/>
	<path fill="#FCE3C1" d="M535.2,442.8c0,0.2,0,0.4,0.1,0.5l-0.4,0.1c-0.5-0.5-0.9-1-1.3-1.5c-1-1.1-1.8-2.3-2.8-3.4l0.2-0.2
		c0-3.3,0-6.7,0-10c1.3,1.6,2.7,3.2,3.9,4.8C534.9,436.5,534.8,439.5,535.2,442.8z"/>
	<path fill="#FCE3C1" d="M533.7,395.7v0.9c-1.8,0-3.6,0-5.3,0v-0.9c0-3.6,0-7.1,0-10.7c0-0.2,0-0.5,0-0.7c1.8,0,3.5-0.1,5.3-0.1v0.8
		C533.7,388.6,533.7,392.1,533.7,395.7z"/>
	<path fill="#615D45" d="M527.4,435.6c0.3,0,0.6,0,0.9,0c0.1,0.1,0.3,0.3,0.4,0.5c0.7,0.8,1.4,1.6,2,2.4c0.9,1.1,1.8,2.3,2.8,3.4
		l-0.6,0.5c-6.3,0.2-13-0.3-19.2-0.4c-0.1-2.1-0.2-4.1-0.3-6.2c0.5,0,0.9,0,1.4,0c1.5,0,3,0,4.6-0.1c1.3,0,2.6,0,3.9,0
		C524.7,435.7,526.1,435.7,527.4,435.6z"/>
	<path fill="#FCE3C1" d="M531,428.3c0,3.3,0,6.7,0,10l-0.2,0.2c-0.6-0.8-1.3-1.6-2-2.4l0.1-0.1c0-3.5-0.1-6.9-0.1-10.4
		C529.5,426.5,530.3,427.4,531,428.3z"/>
	<path fill="#615D45" d="M513,410.2c0-3.1-0.1-6.1-0.1-9.2v-0.4c3.5-0.1,7-0.3,10.5-0.4c1.7,1.1,3.3,2.2,5,3.2l0,0
		c0.1,7.4,0.2,14.7,0.3,22.1c-0.6-0.7-1.2-1.5-1.8-2.2c-0.1-0.1-0.2-0.2-0.2-0.3c-1.2,0-2.4,0-3.6,0c-1.3,0-2.7,0-4-0.1
		c-1.5,0-3,0-4.5,0c-0.3,0-0.7,0-1,0c-0.1-0.4-0.3-0.8-0.4-1.2C513.1,418,513.1,414.1,513,410.2z"/>
	<path fill="#615D45" d="M528.3,395.7v0.9c-1.1,0-2.2,0-3.4,0.1c-0.7,0-1.3,0-2,0v-0.4c0.1-3.9,0-7.8-0.4-11.7v-0.3
		c1.9-0.1,3.8-0.1,5.7-0.1c0,0.2,0,0.5,0,0.7C528.3,388.6,528.3,392.1,528.3,395.7z"/>
	<path fill="#615D45" d="M528.3,373.3c0,3.7,0,7.3,0,10.9c-1.9,0-3.8,0.1-5.7,0.1c-0.8,0-1.6,0-2.4,0.1c-1,0-2,0.1-2.9,0.3
		c-1.4,0.2-2.8,0.6-4.2,1c0-2.2-0.1-4.3-0.1-6.5v-0.1c0.6-0.2,1.3-0.3,1.9-0.6C519.2,377,523.7,374.4,528.3,373.3L528.3,373.3z"/>
	<path fill="#615D45" d="M526.9,423.5l-0.2,0.2c0.1,4,0.4,8,0.8,12c-1.4,0-2.7,0-4.1,0.1c0.2-4,0.1-8-0.2-12v-0.5c1.2,0,2.4,0,3.6,0
		C526.8,423.3,526.8,423.4,526.9,423.5z"/>
	<path fill="#03080D" d="M518.5,397.1c1.7,1.1,3.3,2.1,4.9,3.2c-3.5,0.1-7,0.2-10.5,0.4c-2.2,0.1-4.4,0.2-6.6,0.3l0,0
		c0-0.1,0-0.1,0-0.2c0,0,0,0,0.1,0c2.5,0.1,4.8-0.9,7-1.9c0.8-0.3,1.5-0.6,2.3-0.9C516.6,397.5,517.5,397.3,518.5,397.1z"/>
	<path fill="#615D45" d="M523.1,423.7c0.3,4,0.4,8,0.2,12c-1.3,0-2.6,0-3.9,0v-0.1c-0.1-4-0.2-8-0.4-12V423c1.3,0,2.7,0,4,0.1
		L523.1,423.7z"/>
	<path fill="#615D45" d="M522.6,384.7c0.4,3.9,0.5,7.8,0.4,11.7v0.4c-1.6,0-3,0.1-4.5,0.4c-0.2-0.1-0.4-0.2-0.5-0.4l-0.5-0.1
		c-0.1-3.9-0.1-7.8-0.2-11.7v-0.2c1-0.2,2-0.3,2.9-0.3c0.8,0,1.6-0.1,2.4-0.1L522.6,384.7z"/>
	<path fill="#615D45" d="M519.4,435.7L519.4,435.7c-1.5,0.1-3,0.1-4.6,0.1c-0.1-4.1-0.2-8.3-0.3-12.5V423c1.5,0,3,0,4.5,0v0.6
		C519.2,427.7,519.3,431.7,519.4,435.7z"/>
	<path fill="#615D45" d="M518,396.7c0.2,0.1,0.4,0.2,0.5,0.4c-1,0.2-1.9,0.4-2.9,0.8c-0.8,0.3-1.5,0.6-2.3,0.9l-0.1-0.2
		c-0.1-4.3-0.2-8.6-0.3-12.8c1.4-0.4,2.8-0.8,4.2-1v0.2c0.1,3.9,0.1,7.8,0.2,11.7H518z"/>
</g>
<g id="ĺžĺą_4">
	<path fill="none" stroke="#000000" stroke-width="2" stroke-linecap="round" stroke-linejoin="round" stroke-miterlimit="10" d="
		M548.5,163C548.5,163.1,548.5,163.1,548.5,163c4,24.6,8,49.3,12,73.9c0.4,2.5,0.8,5,1.2,7.6c0,0.2,0.1,0.4,0.1,0.6
		c0.3,2,0.6,3.9,1,5.9c0.7,4.4,1.5,8.7,2.2,13.1c0.1,0.7,0.2,1.3,0.3,2c1.8,10.3,3.6,20.6,5.5,30.9c3.1,17.1,5.3,34.3,8.8,51.3
		c0,0.2,0.1,0.5,0.2,0.7"/>
	<path fill="none" stroke="#000000" stroke-width="2" stroke-linecap="round" stroke-linejoin="round" stroke-miterlimit="10" d="
		M460.6,279.6c0.1,0,0.2,0,0.3-0.1c9.1-2.5,18.1-5,27.2-7.6c9.5-2.7,19-5.3,28.5-8c9-2.5,17.9-5,26.8-7.6c0.8-0.2,1.6-0.4,2.4-0.7
		c1.8-0.5,3.7-1,5.5-1.6c3.8-1.1,7.6-2.2,11.4-3.3c5.2-1.5,10.3-2.9,15.5-4.4c0.1,0,0.2-0.1,0.4-0.1c1.8-0.5,3.7-1,5.5-1.6
		c30.7-8.8,61.3-17.8,91.9-27c0.5-0.1,1-0.3,1.5-0.4"/>
	<path fill="none" stroke="#000000" stroke-width="2" stroke-linecap="round" stroke-linejoin="round" stroke-miterlimit="10" d="
		M548.7,163c-0.1,0-0.1,0-0.2,0.1c-4.5,1.5-8.8,3.1-13.1,5c2.8,23,5.7,46.5,10.2,69.2c4.9,0.1,9.9-0.6,14.9-0.5c0.1,0,0.2,0,0.2,0"
		/>
	<path fill="none" stroke="#000000" stroke-width="2" stroke-linecap="round" stroke-linejoin="round" stroke-miterlimit="10" d="
		M578.1,247.7c0.1-0.2,0.1-0.3,0.2-0.5c0.1-0.2,0.2-0.5,0.3-0.7c0.5-1.1,0.9-2.3,1.3-3.5c1.5-4.1,2.8-8.2,4-12.4
		c30-9.3,59.5-18.3,89.5-27.6c0.6,4.9,1.3,10.1,2.6,14.9v0.1"/>
	<path fill="none" stroke="#000000" stroke-width="2" stroke-linecap="round" stroke-linejoin="round" stroke-miterlimit="10" d="
		M460.9,279.4c0,0.1,0,0.2,0,0.2c0.6,4.1,1.4,8.1,2.3,12.1c21.7-5.5,43.1-11.1,64.6-17c3.6-1,7.2-2,10.8-3c0.9-0.3,1.8-0.5,2.7-0.8
		c1.2-5.2,2.5-10,4.5-15"/>
	<path fill="none" stroke="#000000" stroke-width="2" stroke-linecap="round" stroke-linejoin="round" stroke-miterlimit="10" d="
		M565,266c0.1,0,0.2,0,0.3,0c5,0.2,10.1,0.7,15,1.6c0.3,0,0.5,0.1,0.7,0.1c3.4,26.2,7.9,52.2,12.7,78.2c-2,0.4-4,0.7-6.1,1
		c-2.7,0.4-5.4,0.8-7.9,1.3"/>
	<path fill="none" stroke="#000000" stroke-width="2" stroke-linecap="round" stroke-linejoin="round" stroke-miterlimit="10" d="
		M543.3,256c0-0.8,0-1.5,0.1-2.2c3.4-2.5,6.6-5.2,9.6-8.1c0.1-0.1,0.2-0.2,0.3-0.3c2.8-0.3,5.5-0.6,8.3-0.9
		c5.1-0.6,10.2-1.3,15.3-1.8c0.2,0,0.4,0,0.5,0c0.9,0,1.5,0.1,2.3,0.3c0.2,0.1,0.3,0.1,0.5,0.2"/>
	<path fill="none" stroke="#000000" stroke-width="2" stroke-linecap="round" stroke-linejoin="round" stroke-miterlimit="10" d="
		M584,244.9c3,0.6,6,1.1,9,1.7c1.9,6.6,3.7,13.5,5.6,20.1"/>
	<path fill="none" stroke="#000000" stroke-width="2" stroke-linecap="round" stroke-linejoin="round" stroke-miterlimit="10" d="
		M538.6,271.3c0,0.1,0,0.2,0,0.4c0.1,1,0,2-0.2,3c0.9-0.9,1.8-1.9,2.8-2.7c1.6-1.5,3.2-2.9,4.9-4.2c0.8-0.7,1.6-1.2,2.4-1.5
		c0.9-0.4,1.7-0.6,2.7-0.8c1.1-0.2,2.3-0.2,3.7-0.4c3.3-0.3,6.7-0.7,10.1-1.1c4.8-0.5,9.7-1.1,14.4-1.3c0.3,0,0.6,0,0.9,0
		c0,0,0,0,0.1,0c5.6-0.1,11,1.5,16.4,3.3c0.6,0.2,1.3,0.4,1.9,0.6c0.2,0.1,0.3,0.1,0.4,0.1"/>
	<path fill="none" stroke="#000000" stroke-width="2" stroke-linecap="round" stroke-linejoin="round" stroke-miterlimit="10" d="
		M553.3,246c-0.7,2.8-1.3,5.5-2,8.3c-1,4-1.9,8-2.9,12v0.1"/>
	<path fill="none" stroke="#000000" stroke-width="2" stroke-linecap="round" stroke-linejoin="round" stroke-miterlimit="10" d="
		M577.5,242.3c0,0.1,0,0.2,0.1,0.4c0.2,1.3,0.4,2.6,0.7,3.9c0,0.2,0.1,0.4,0.1,0.6c0.8,4.9,1.4,9.9,2,14.8"/>
	<path fill="none" stroke="#000000" stroke-width="2" stroke-linecap="round" stroke-linejoin="round" stroke-miterlimit="10" d="
		M541.3,272.1c-0.4,1.4-0.8,2.8-1.2,4.2c-1.2,4.2-2.3,8.3-3.5,12.5c-3.8,13.8-7.7,27.5-11.6,41.3c-2.4,8.4-3.9,17.2-7.3,25.2
		c-3.6,8.4-8.5,16.1-13.6,23.6"/>
	<path fill="none" stroke="#000000" stroke-width="2" stroke-linecap="round" stroke-linejoin="round" stroke-miterlimit="10" d="
		M596.7,266.3c0.4,1.6,0.8,3.2,1.2,4.7c1.8,7.2,3.7,14.3,5.6,21.5c2,7.4,4,14.8,6,22.1c4.2,15,7.2,31.4,14.9,45.1
		c3.2,5.6,7.3,10.6,11.4,15.6"/>
	<path fill="none" stroke="#000000" stroke-width="2" stroke-linecap="round" stroke-linejoin="round" stroke-miterlimit="10" d="
		M551.2,265c0,0.2,0,0.3-0.1,0.5c-2.8,19.1-6.5,38.1-10.3,57c-3.3,16.4-7.6,33.2-16.3,47.7c-0.1,0.1-0.2,0.3-0.3,0.5"/>
	<path fill="none" stroke="#000000" stroke-width="2" stroke-linecap="round" stroke-linejoin="round" stroke-miterlimit="10" d="
		M579.4,263c0.3,1.6,0.6,3.1,0.9,4.6c0,0.1,0,0.2,0.1,0.4"/>
	<path fill="none" stroke="#000000" stroke-width="2" stroke-linecap="round" stroke-linejoin="round" stroke-miterlimit="10" d="
		M587.7,347.3c1.6,7.7,3.7,15.3,6.3,22.6c0,0,0,0,0,0.1"/>
	<path fill="none" stroke="#000000" stroke-width="2" stroke-linecap="round" stroke-linejoin="round" stroke-miterlimit="10" d="
		M503.4,379.5c0.3-0.1,0.5-0.2,0.8-0.3c0.1-0.1,0.3-0.1,0.4-0.2c6.6-2.9,13.1-5.8,19.7-8.7"/>
	<path fill="none" stroke="#000000" stroke-width="2" stroke-linecap="round" stroke-linejoin="round" stroke-miterlimit="10" d="
		M524,370.2c0.1,0,0.2,0,0.3,0s0.2,0,0.3,0c10.2,0,20.3-0.1,30.5-0.1c12.9-0.1,25.8-0.1,38.7-0.2c0.1,0,0.2,0,0.3,0"/>
	<path fill="none" stroke="#000000" stroke-width="2" stroke-linecap="round" stroke-linejoin="round" stroke-miterlimit="10" d="
		M593.3,369.8c0.1,0,0.3,0,0.4,0.1c0.1,0,0.2,0,0.3,0c13.8,2.4,27.7,4.2,41.7,5.5c0.1,0,0.2,0,0.3,0"/>
	<path fill="none" stroke="#000000" stroke-width="2" stroke-linecap="round" stroke-linejoin="round" stroke-miterlimit="10" d="
		M564,311.6c1.6-0.1,3.1-0.2,4.7-0.2c0,3.1-0.3,8-0.3,11.1c-1.4,0.1-2.8,0.2-4.3,0.3c-2.9,0.2-6,0.3-8.7,0.5c0-1.9,0-3.8,0-5.6
		c0-1.8,0-3.6,0-5.4c1.4-0.1,2.8-0.3,4.2-0.4C561,311.8,562.5,311.7,564,311.6z"/>
	<path fill="none" stroke="#000000" stroke-width="2" stroke-linecap="round" stroke-linejoin="round" stroke-miterlimit="10" d="
		M555.3,317.7c1.5-0.2,3-0.4,4.5-0.6c1.4-0.1,2.8-0.3,4.2-0.3c1.3-0.1,2.7-0.1,4-0.1"/>
	<path fill="none" stroke="#000000" stroke-width="2" stroke-linecap="round" stroke-linejoin="round" stroke-miterlimit="10" d="
		M559.6,312.3c0.1,1.6,0.1,3.2,0.2,4.8c0.1,1.8,0.2,3.5,0.2,5.2"/>
	<path fill="none" stroke="#000000" stroke-width="2" stroke-linecap="round" stroke-linejoin="round" stroke-miterlimit="10" d="
		M564,312c0,1.6,0,3.2,0,4.8c0,2,0,3.9,0,5.9"/>
	<path fill="none" stroke="#000000" stroke-width="2" stroke-linecap="round" stroke-linejoin="round" stroke-miterlimit="10" d="
		M504.7,379.2c3.2,0.3,5.5,0.7,8.2,0.1c0.6-0.2,1.3-0.3,1.9-0.6c4.4-1.7,8.9-4.3,13.5-5.4c0.7-0.2,1.4-0.3,2-0.4
		c6.4-1,13.3-0.5,19.7-0.6c1.7,0,3.4,0,5-0.1c11.2-0.1,22.4,0.1,33.6,0.6c0.1,0,0.2,0,0.4,0c3.4,0.2,6.5,0.6,9.9,1.3
		c3,0.7,6,1.1,9,1.6c5.8,0.8,11.6,1.7,17.4,2.5c0.1,0,0.3,0,0.4,0.1c3.7,0.4,6.6-1.3,10.4-2"/>
	<path fill="none" stroke="#000000" stroke-width="2" stroke-linecap="round" stroke-linejoin="round" stroke-miterlimit="10" d="
		M525,277.5c1.4-0.1,2.9-0.3,4.3-0.4c3.5-0.3,6.9-0.6,10.4-1"/>
	<path fill="none" stroke="#000000" stroke-width="2" stroke-linecap="round" stroke-linejoin="round" stroke-miterlimit="10" d="
		M598.3,270.9c5.4-0.8,10.8-1.4,16.2-2c0.9-0.1,1.9-0.2,2.8-0.3"/>
	<path fill="none" stroke="#000000" stroke-width="2" stroke-linecap="round" stroke-linejoin="round" stroke-miterlimit="10" d="
		M527.5,274.1c0.1,0.2,0.2,0.4,0.4,0.6c0.5,0.8,1,1.6,1.5,2.5c2.3,3.8,4.7,7.7,7,11.6"/>
	<path fill="none" stroke="#000000" stroke-width="2" stroke-linecap="round" stroke-linejoin="round" stroke-miterlimit="10" d="
		M604,292.3c3.5-7.8,7-15.6,10.5-23.4c0.5-1.1,1-2.2,1.4-3.2"/>
	<path fill="none" stroke="#000000" stroke-width="2" stroke-linecap="round" stroke-linejoin="round" stroke-miterlimit="10" d="
		M487.7,400.3c2,0,4.1,0.1,6.1,0.2c3,0.1,6,0.1,9,0.2c1.1,0,2.3,0.1,3.4,0.1c0,0,0,0,0.1,0c2.5,0.1,4.8-0.9,7-1.9
		c0.8-0.3,1.5-0.6,2.3-0.9c1-0.4,1.9-0.6,2.9-0.8c1.5-0.3,2.9-0.4,4.5-0.4c0.6,0,1.3,0,2,0c1.1,0,2.2,0,3.4-0.1c1.8,0,3.6,0,5.3,0
		c2,0,4,0,6,0c2.1,0,4.3,0,6.4,0c1,0,2,0,3,0c1.1,0,2.2,0,3.3,0c2,0,3.9,0,5.9,0c2.1,0,4.2,0,6.3-0.1c2.2,0,4.5,0,6.7-0.1
		c2.1,0,4.2-0.1,6.3-0.1c1.9,0,3.8-0.1,5.7-0.1c2.2,0,4.5-0.1,6.7-0.1c1.9,0,3.8-0.1,5.8-0.1c0.2,0,0.4,0,0.7,0c1.7,0,3.5,0,5.2,0
		c2,0,4.1,0.1,6.1,0.2s4.1,0.3,6.2,0.4c2,0.2,4,0.4,6,0.6c2,0.2,4.1,0.5,6.1,0.7c1.3,0.2,2.7,0.3,4,0.5c1.6,0.2,3.2,0.4,4.8,0.6
		c1.7,0.2,3.4,0.4,5.1,0.6c0.3,0,0.6,0.1,0.9,0.1"/>
	<path fill="none" stroke="#000000" stroke-width="2" stroke-linecap="round" stroke-linejoin="round" stroke-miterlimit="10" d="
		M506.3,400.9c2.2-0.1,4.4-0.2,6.6-0.3c3.5-0.1,7-0.3,10.5-0.4c21.6-0.6,43.2-0.6,64.8-0.5c1.5,0,3.1,0,4.7,0
		c10.9,0.1,21.8,0.1,32.7,0.2c4.6,0,9.1,0,13.7,0c0.2,0,0.5,0,0.7,0c0.1,0,0.2,0,0.3,0"/>
	<path fill="none" stroke="#000000" stroke-width="2" stroke-linecap="round" stroke-linejoin="round" stroke-miterlimit="10" d="
		M487.4,400.3L487.4,400.3c1.3,1,2.3,2.2,3.1,3.5c0.2,0.4,0.4,0.7,0.6,1.1c0.3,0.6,0.5,1.2,0.8,1.8c0.2,0.6,0.4,1.3,0.6,1.9
		c0.2,0.6,0.4,1.2,0.6,1.8c0.4,1.2,0.8,2.4,1.1,3.7c0.4,1.4,0.8,2.7,1.2,4.1c1,3.6,2,7.2,3,10.8c0.6,2.4,1.2,4.8,1.8,7.2
		c0.4,0,0.8,0,1.2,0c1.4,0,2.9,0,4.3-0.1c1.6,0,3.3,0,5-0.1c0.9,0,1.8,0,2.8,0c0.5,0,0.9,0,1.4,0c1.5,0,3,0,4.6-0.1
		c1.3,0,2.6,0,3.9,0c1.4,0,2.8,0,4.1-0.1c0.3,0,0.6,0,0.9,0c0.1,0.1,0.3,0.3,0.4,0.5c0.7,0.8,1.4,1.6,2,2.4c0.9,1.1,1.8,2.3,2.8,3.4
		c0.4,0.5,0.9,1,1.3,1.5"/>
	<path fill="none" stroke="#000000" stroke-width="2" stroke-linecap="round" stroke-linejoin="round" stroke-miterlimit="10" d="
		M487.4,401c0-0.2,0-0.5,0-0.7c-0.1-3.3-0.3-6.6-0.4-10c1.4,0.2,2.1,0,3.3-0.7c0.1,0.2,0.1,0.5,0.2,0.7c1,3.3,2.1,6.7,3.2,10.1
		c0.3,1.1,0.7,2.1,1.1,3.2c0.3,1,0.6,2,1,3c0.4,1.2,0.8,2.4,1.2,3.7c0.4,1.2,0.8,2.5,1.2,3.7c0.4,1.4,0.9,2.8,1.3,4.1
		c0.3,1,0.6,2.1,1,3.1c0.2,0.6,0.4,1.3,0.6,1.9c0,0.1,0.1,0.2,0.1,0.2c2.9-0.2,6-0.3,9-0.3c1,0,2,0,3,0c0.1,0,0.3,0,0.4,0
		c0.3,0,0.7,0,1,0c1.5,0,3,0,4.5,0c1.3,0,2.7,0,4,0.1c1.2,0,2.4,0,3.6,0c0.1,0.1,0.2,0.2,0.2,0.3c0.6,0.7,1.2,1.4,1.8,2.2
		c0.8,0.9,1.5,1.8,2.3,2.7c1.3,1.6,2.7,3.2,3.9,4.8c0,3.4-0.1,6.4,0.3,9.7c0,0.2,0,0.4,0.1,0.5c0,0.1,0,0.2,0,0.3"/>
	<path fill="none" stroke="#000000" stroke-width="2" stroke-linecap="round" stroke-linejoin="round" stroke-miterlimit="10" d="
		M526.7,423.7c0.1,4,0.4,8,0.8,12c0,0.1,0,0.3,0,0.4"/>
	<path fill="none" stroke="#000000" stroke-width="2" stroke-linecap="round" stroke-linejoin="round" stroke-miterlimit="10" d="
		M531,428.3c0,3.3,0,6.7,0,10"/>
	<path fill="none" stroke="#000000" stroke-width="2" stroke-linecap="round" stroke-linejoin="round" stroke-miterlimit="10" d="
		M501.1,423L501.1,423c0,0.7,0,1.3,0.1,1.9c0,1.3,0.1,2.5,0.1,3.8c0.1,2.4,0.1,4.9,0.2,7.3c0,0.1,0,0.3,0,0.4"/>
	<path fill="none" stroke="#000000" stroke-width="2" stroke-linecap="round" stroke-linejoin="round" stroke-miterlimit="10" d="
		M505.3,423.3c0,0.4,0,0.8,0,1.3c0,1.3,0.1,2.6,0.1,3.9c0,1,0.1,2.1,0.1,3.1c0.1,1.4,0.1,2.8,0.2,4.2v0.1"/>
	<path fill="none" stroke="#000000" stroke-width="2" stroke-linecap="round" stroke-linejoin="round" stroke-miterlimit="10" d="
		M510.2,423.3c0,0.4,0,0.8,0,1.1c0.1,1.3,0.1,2.6,0.2,3.9c0,1.1,0.1,2.1,0.1,3.2c0.1,1.4,0.1,2.7,0.2,4.1"/>
	<path fill="none" stroke="#000000" stroke-width="2" stroke-linecap="round" stroke-linejoin="round" stroke-miterlimit="10" d="
		M514.6,423.3c0.1,4.1,0.2,8.3,0.3,12.5c0,0.1,0,0.1,0,0.2"/>
	<path fill="none" stroke="#000000" stroke-width="2" stroke-linecap="round" stroke-linejoin="round" stroke-miterlimit="10" d="
		M519.1,423.7c0.1,4,0.2,8,0.4,12"/>
	<path fill="none" stroke="#000000" stroke-width="2" stroke-linecap="round" stroke-linejoin="round" stroke-miterlimit="10" d="
		M523.1,423.7c0.3,4,0.4,8,0.2,12c0,0.2,0,0.4,0,0.6"/>
	<path fill="none" stroke="#000000" stroke-width="2" stroke-linecap="round" stroke-linejoin="round" stroke-miterlimit="10" d="
		M502.7,389.3C502.7,389.4,502.7,389.4,502.7,389.3c0,0.4,0,0.7,0,1c0,3.3,0,6.7,0,10l0,0"/>
	<path fill="none" stroke="#000000" stroke-width="2" stroke-linecap="round" stroke-linejoin="round" stroke-miterlimit="10" d="
		M502.7,400.3c0,0.1,0.1,0.2,0.1,0.3c0.1,0.3,0.2,0.6,0.3,0.9l0,0c0.6,1.7,1.1,3.4,1.7,5.1c0.8,2.5,1.6,4.9,2.4,7.4
		c0.4,1.3,0.9,2.6,1.3,3.9c0.3,1,0.7,2.1,1,3.1c0.2,0.7,0.5,1.4,0.7,2.1c0.1,0.5,0.3,0.9,0.4,1.4c0.8,2.4,1.5,4.8,2.3,7.3
		c0.4,1.2,0.8,2.4,1.1,3.6"/>
	<path fill="none" stroke="#000000" stroke-width="2" stroke-linecap="round" stroke-linejoin="round" stroke-miterlimit="10" d="
		M503.1,390c0,0.1,0.1,0.2,0.1,0.3c1,3.5,2,7,3.1,10.4c0,0.1,0,0.1,0,0.2c0.5,1.5,0.9,3,1.4,4.5c1.7,5.5,3.5,11,5.4,16.4
		c0.1,0.4,0.3,0.8,0.4,1.2c0.1,0.4,0.3,0.9,0.4,1.3"/>
	<path fill="none" stroke="#000000" stroke-width="2" stroke-linecap="round" stroke-linejoin="round" stroke-miterlimit="10" d="
		M503,389.4c3.3-1.1,6.6-2.5,10-3.6c1.4-0.4,2.8-0.8,4.2-1c1-0.2,2-0.3,2.9-0.3c0.8,0,1.6-0.1,2.4-0.1c1.9-0.1,3.8-0.1,5.7-0.1
		c1.8,0,3.5-0.1,5.3-0.1c2,0,4-0.1,6-0.1c0.4,0,0.7,0,1.1,0c1.6,0,3.3-0.1,4.9-0.1c2.1,0,4.2-0.1,6.3-0.1s4.2-0.1,6.4-0.1
		c2,0,4-0.1,6-0.1s4-0.1,5.9-0.1c0.4,0,0.7,0,1.1,0c2.1-0.1,4.2-0.2,6.3-0.4c1.9-0.1,3.8-0.3,5.7-0.4s3.8-0.3,5.7-0.3
		c0.3,0,0.7,0,1,0c2.1,0,4.3,0,6.3,0.1c0.8,0,1.5,0.1,2.3,0.2c1.1,0.1,2.1,0.2,3.2,0.3c1.9,0.2,3.7,0.4,5.6,0.6
		c2.2,0.2,4.5,0.4,6.7,0.6c1.9,0.2,3.8,0.3,5.7,0.5c2,0.2,4.1,0.4,6.1,0.5c4.5,0.4,9.1,0.8,13.6,1.2c0,0.3,0,0.6,0,0.9
		c0.1,3.9,0.6,8.4,0.6,12.3c0,0.1,0,0.1,0,0.2"/>
	<path fill="none" stroke="#000000" stroke-width="2" stroke-linecap="round" stroke-linejoin="round" stroke-miterlimit="10" d="
		M507.2,388.3c0,0.7,0,1.3,0.1,2c0.1,3.2,0.2,6.4,0.3,9.6"/>
	<path fill="none" stroke="#000000" stroke-width="2" stroke-linecap="round" stroke-linejoin="round" stroke-miterlimit="10" d="
		M512,387c0,1.1,0,2.3,0,3.4c0,2.8,0,5.5,0,8.3"/>
	<path fill="none" stroke="#000000" stroke-width="2" stroke-linecap="round" stroke-linejoin="round" stroke-miterlimit="10" d="
		M517.2,385c0.1,3.9,0.1,7.8,0.2,11.7"/>
	<path fill="none" stroke="#000000" stroke-width="2" stroke-linecap="round" stroke-linejoin="round" stroke-miterlimit="10" d="
		M522.6,384.7c0.4,3.9,0.5,7.8,0.4,11.7"/>
	<path fill="none" stroke="#000000" stroke-width="2" stroke-linecap="round" stroke-linejoin="round" stroke-miterlimit="10" d="
		M533.7,385c0,3.6,0,7.1,0,10.7"/>
	<path fill="none" stroke="#000000" stroke-width="2" stroke-linecap="round" stroke-linejoin="round" stroke-miterlimit="10" d="
		M539.7,384.7c0,3.7,0,7.3,0,11"/>
	<path fill="none" stroke="#000000" stroke-width="2" stroke-linecap="round" stroke-linejoin="round" stroke-miterlimit="10" d="
		M545.7,384.7c0.1,3.5,0.3,7.1,0.4,10.7"/>
	<path fill="none" stroke="#000000" stroke-width="2" stroke-linecap="round" stroke-linejoin="round" stroke-miterlimit="10" d="
		M552,384.7c0.1,3.8,0.3,7.5,0.4,11.3"/>
	<path fill="none" stroke="#000000" stroke-width="2" stroke-linecap="round" stroke-linejoin="round" stroke-miterlimit="10" d="
		M558.3,384c0,4,0,8,0,12"/>
	<path fill="none" stroke="#000000" stroke-width="2" stroke-linecap="round" stroke-linejoin="round" stroke-miterlimit="10" d="
		M564.3,383.7c0.4,4.2,0.5,8.4,0.3,12.7"/>
	<path fill="none" stroke="#000000" stroke-width="2" stroke-linecap="round" stroke-linejoin="round" stroke-miterlimit="10" d="
		M571.3,383.3C571.3,383.4,571.3,383.4,571.3,383.3c0,4.3,0,8.5,0,12.7"/>
	<path fill="none" stroke="#000000" stroke-width="2" stroke-linecap="round" stroke-linejoin="round" stroke-miterlimit="10" d="
		M577.7,383.7c0,4,0,8,0,12"/>
	<path fill="none" stroke="#000000" stroke-width="2" stroke-linecap="round" stroke-linejoin="round" stroke-miterlimit="10" d="
		M583.3,383.3c0,4.3,0,8.5,0,12.8c0,0.1,0,0.1,0,0.2"/>
	<path fill="none" stroke="#000000" stroke-width="2" stroke-linecap="round" stroke-linejoin="round" stroke-miterlimit="10" d="
		M590,382.7c0,4.2,0,8.4,0,12.7"/>
	<path fill="none" stroke="#000000" stroke-width="2" stroke-linecap="round" stroke-linejoin="round" stroke-miterlimit="10" d="
		M596.3,382.3L596.3,382.3c0,4.4,0,8.7,0,13"/>
	<path fill="none" stroke="#000000" stroke-width="2" stroke-linecap="round" stroke-linejoin="round" stroke-miterlimit="10" d="
		M601.7,383.7c0,3.8,0,7.5,0,11.3"/>
	<path fill="none" stroke="#000000" stroke-width="2" stroke-linecap="round" stroke-linejoin="round" stroke-miterlimit="10" d="
		M607.3,383.7c0.2,3.9,0.3,7.8,0.5,11.7"/>
	<path fill="none" stroke="#000000" stroke-width="2" stroke-linecap="round" stroke-linejoin="round" stroke-miterlimit="10" d="
		M614,384L614,384c0,3.9,0,7.8,0,11.7"/>
	<path fill="none" stroke="#000000" stroke-width="2" stroke-linecap="round" stroke-linejoin="round" stroke-miterlimit="10" d="
		M619.6,385c0.4,3.9,0.5,7.8,0.3,11.7"/>
	<path fill="none" stroke="#000000" stroke-width="2" stroke-linecap="round" stroke-linejoin="round" stroke-miterlimit="10" d="
		M625.1,385.7c0.1,3.9,0.2,7.8,0.3,11.7"/>
	<path fill="none" stroke="#000000" stroke-width="2" stroke-linecap="round" stroke-linejoin="round" stroke-miterlimit="10" d="
		M629.7,386c0,1.2,0.1,2.5,0.1,3.7c0.1,2.9,0.2,5.7,0.3,8.6c0,0.1,0,0.3,0,0.4"/>
	<path fill="none" stroke="#000000" stroke-width="2" stroke-linecap="round" stroke-linejoin="round" stroke-miterlimit="10" d="
		M634.6,386.7c0,0.6,0,1.2,0,1.8c0.1,3.5,0.2,6.9,0.3,10.4c0,0.1,0,0.1,0,0.1"/>
	<path fill="none" stroke="#000000" stroke-width="2" stroke-linecap="round" stroke-linejoin="round" stroke-miterlimit="10" d="
		M626.4,390.6c1.1-0.3,2.3-0.6,3.4-0.9c1.6-0.4,3.2-0.8,4.8-1.2c1.6-0.4,3.2-0.8,4.8-1.2c0.1,0,0.2,0,0.3-0.1"/>
	<path fill="none" stroke="#000000" stroke-width="2" stroke-linecap="round" stroke-linejoin="round" stroke-miterlimit="10" d="
		M489.7,390.4c0.3,0,0.6,0,0.9,0c4-0.1,8.1-0.1,12.1,0c0.2,0,0.3,0,0.5,0c1.4,0,2.8,0,4.1,0c1.6,0,3.1,0,4.7,0.1"/>
	<path fill="none" stroke="#000000" stroke-width="2" stroke-linecap="round" stroke-linejoin="round" stroke-miterlimit="10" d="
		M490.3,403.8c0.1,0,0.2,0,0.2,0c1.4,0,2.8-0.1,4.2-0.1c2.7-0.1,5.4-0.1,8.2-0.2"/>
	<path fill="none" stroke="#000000" stroke-width="2" stroke-linecap="round" stroke-linejoin="round" stroke-miterlimit="10" d="
		M491.3,406.7c0.2,0,0.4,0,0.6,0c1.3,0,2.6,0,3.8,0c3,0,5.9,0,8.9,0"/>
	<path fill="none" stroke="#000000" stroke-width="2" stroke-linecap="round" stroke-linejoin="round" stroke-miterlimit="10" d="
		M493,410.3h0.1c1.3,0,2.6,0,3.8,0c2.8,0,5.6,0,8.3,0"/>
	<path fill="none" stroke="#000000" stroke-width="2" stroke-linecap="round" stroke-linejoin="round" stroke-miterlimit="10" d="
		M494,414c0.1,0,0.2,0,0.3,0c1.3,0,2.6,0,3.9,0c3,0,6.1,0,9.1,0c0,0,0,0,0.1,0"/>
	<path fill="none" stroke="#000000" stroke-width="2" stroke-linecap="round" stroke-linejoin="round" stroke-miterlimit="10" d="
		M495,418c0.2,0,0.3,0,0.5,0c1.3,0,2.7,0.1,4,0.1c2.9,0,5.9-0.1,8.8-0.2"/>
	<path fill="none" stroke="#000000" stroke-width="2" stroke-linecap="round" stroke-linejoin="round" stroke-miterlimit="10" d="
		M497,421.6c1.2-0.1,2.3-0.3,3.5-0.4c2.9-0.3,5.9-0.3,8.8-0.2"/>
	<path fill="none" stroke="#000000" stroke-width="2" stroke-linecap="round" stroke-linejoin="round" stroke-miterlimit="10" d="
		M498.3,425.2c0.9-0.1,1.9-0.2,2.8-0.3c1.4-0.1,2.8-0.2,4.2-0.3c1.6-0.1,3.3-0.1,4.9-0.1c0.1,0,0.3,0,0.4,0c0,0,0,0,0.1,0"/>
	<path fill="none" stroke="#000000" stroke-width="2" stroke-linecap="round" stroke-linejoin="round" stroke-miterlimit="10" d="
		M498.7,428.8c0.9,0,1.7-0.1,2.6-0.1c1.4,0,2.8-0.1,4.2-0.1c1.6,0,3.3-0.1,4.9-0.2c0.4,0,0.9,0,1.3,0"/>
	<path fill="none" stroke="#000000" stroke-width="2" stroke-linecap="round" stroke-linejoin="round" stroke-miterlimit="10" d="
		M501.6,432.1c1.3-0.2,2.6-0.4,3.9-0.5c1.6-0.1,3.3-0.2,5-0.1c0.8,0,1.6,0.1,2.4,0.1c0.1,0,0.2,0,0.3,0h0.1"/>
	<path fill="none" stroke="#000000" stroke-width="2" stroke-linecap="round" stroke-linejoin="round" stroke-miterlimit="10" d="
		M512.9,379.3c0,2.2,0.1,4.3,0.1,6.5c0.1,4.3,0.2,8.6,0.3,12.8"/>
	<path fill="none" stroke="#000000" stroke-width="2" stroke-linecap="round" stroke-linejoin="round" stroke-miterlimit="10" d="
		M513,401c0,3.1,0,6.1,0.1,9.2c0,3.9,0.1,7.8,0.1,11.7c0,0.4,0,0.8,0,1.2c0,2.9,0,5.7,0.1,8.6"/>
	<path fill="none" stroke="#000000" stroke-width="2" stroke-linecap="round" stroke-linejoin="round" stroke-miterlimit="10" d="
		M528.3,373.3c0,3.7,0,7.3,0,10.9c0,0.2,0,0.5,0,0.7c0,3.6,0,7.1,0,10.7"/>
	<path fill="none" stroke="#000000" stroke-width="2" stroke-linecap="round" stroke-linejoin="round" stroke-miterlimit="10" d="
		M528.4,400.3c0,1.1,0,2.1,0,3.2c0.1,7.4,0.2,14.7,0.3,22.1c0,3.4,0.1,6.9,0.1,10.4"/>
	<path fill="none" stroke="#000000" stroke-width="2" stroke-linecap="round" stroke-linejoin="round" stroke-miterlimit="10" d="
		M589,373c0,3.1,0,6.2,0,9.3c0,4.1,0,8.3,0,12.4"/>
	<path fill="none" stroke="#000000" stroke-width="2" stroke-linecap="round" stroke-linejoin="round" stroke-miterlimit="10" d="
		M588.2,400c0,2.2,0,4.4,0,6.6c0,11.8,0.2,23.6,0.7,35.4"/>
	<path fill="none" stroke="#000000" stroke-width="2" stroke-linecap="round" stroke-linejoin="round" stroke-miterlimit="10" d="
		M625.6,378.7c0.1,2.1,0.1,4.3,0.2,6.4c0,1.8,0.1,3.7,0.1,5.5c0,2.3,0.1,4.5,0.2,6.8"/>
	<path fill="none" stroke="#000000" stroke-width="2" stroke-linecap="round" stroke-linejoin="round" stroke-miterlimit="10" d="
		M625.6,400.3c0.1,2,0.3,4,0.4,6"/>
	<path fill="none" stroke="#000000" stroke-width="2" stroke-linecap="round" stroke-linejoin="round" stroke-miterlimit="10" d="
		M588.5,406.6c1.4-2.3,2.8-4.6,4.4-6.8c0.9-1.3,1.9-2.6,2.9-3.9c0-0.1,0.1-0.1,0.2-0.2"/>
	<path fill="none" stroke="#000000" stroke-width="2" stroke-linecap="round" stroke-linejoin="round" stroke-miterlimit="10" d="
		M627.1,406.5c0.1,0,0.2-0.1,0.2-0.1c4.1-1.9,8.1-3.9,12-6.2"/>
	<path fill="none" stroke="#000000" stroke-width="2" stroke-linecap="round" stroke-linejoin="round" stroke-miterlimit="10" d="
		M518,396.7c0.2,0.1,0.4,0.2,0.5,0.4c1.7,1.1,3.3,2.1,4.9,3.2c1.7,1.1,3.3,2.2,5,3.2"/>
	<path fill="none" stroke="#000000" stroke-width="2" stroke-linecap="round" stroke-linejoin="round" stroke-miterlimit="10" d="
		M503.2,401.5c1.5,1.3,3,2.7,4.5,4c1.8,1.6,3.5,3.2,5.3,4.8l0,0"/>
	<path fill="none" stroke="#000000" stroke-width="2" stroke-linecap="round" stroke-linejoin="round" stroke-miterlimit="10" d="
		M611.3,413.5c-0.8,0-1.7,0.1-2.6,0.3c-0.9,0.1-1.8,0.3-2.6,0.3c0.2-0.1,0.5-0.3,0.7-0.4c2.1-1.1,4.2-2.3,6.3-3.4
		c2.4-1.3,4.9-2.6,7.3-3.9c0.2,0.1,0.5,0.3,0.7,0.4c3.7,2,7.9,4,11.8,5.5c-0.4,0-0.8,0.1-1.1,0.1c-0.4,0-0.8,0.1-1.2,0.1
		c-0.8,0.1-1.5,0.2-2.3,0.2"/>
	<path fill="none" stroke="#000000" stroke-width="2" stroke-linecap="round" stroke-linejoin="round" stroke-miterlimit="10" d="
		M620.8,406.8c0.1,0,0.2,0,0.3,0c1.7-0.1,3.4-0.2,5-0.3c0.4,0,0.8,0,1.3-0.1c20-1,40.1-1.8,60.1-2.5c15.4-0.6,30.9-0.9,46.3-2"/>
	<path fill="none" stroke="#000000" stroke-width="2" stroke-linecap="round" stroke-linejoin="round" stroke-miterlimit="10" d="
		M729,408.2c-1.3,0.1-2.6,0.3-3.9,0.3c-1,0-2.1,0.1-3.1,0c4-2.1,7.9-4.3,11.8-6.4c2.3-1.2,4.6-2.5,6.9-3.7c6.2,2.7,13,5.4,19.5,7.2
		c-0.5,0-1,0.1-1.5,0.1c-0.1,0-0.3,0-0.4,0c-1.5,0.2-3.2,0.4-4.6,0.4"/>
	<path fill="none" stroke="#000000" stroke-width="2" stroke-linecap="round" stroke-linejoin="round" stroke-miterlimit="10" d="
		M740.5,398c0.1,0,0.2,0,0.3,0c5.5,0.6,11,1.3,16.5,2.1c0.2,0,0.5,0.1,0.7,0.1"/>
	<path fill="none" stroke="#000000" stroke-width="2" stroke-linecap="round" stroke-linejoin="round" stroke-miterlimit="10" d="
		M757.3,400.4c6.1,2.1,12.3,4,18.5,5.7c0.3,0.1,0.6,0.2,0.9,0.3"/>
	<path fill="none" stroke="#000000" stroke-width="2" stroke-linecap="round" stroke-linejoin="round" stroke-miterlimit="10" d="
		M758.8,405.9c5.7,0.1,11.3,0.2,17,0.3"/>
	<path fill="none" stroke="#000000" stroke-width="2" stroke-linecap="round" stroke-linejoin="round" stroke-miterlimit="10" d="
		M725.1,408.8c0,1.2,0,2.4,0.1,3.6c0,0.8,0,1.6,0,2.3c0,3.3,0.1,6.7,0,10c0,3.8,0,7.6,0,11.4c0,0.2,0,0.3,0,0.5
		c11,0.3,21.9,0.6,32.8,0.5c5.9,0,11.8-0.2,17.7-0.5c0.6-9.8,0.7-19.4,0.1-29.3"/>
	<path fill="none" stroke="#000000" stroke-width="2" stroke-linecap="round" stroke-linejoin="round" stroke-miterlimit="10" d="
		M758.3,406c-0.1,10.3-0.2,20.7-0.3,31c0,0.1,0,0.2,0,0.3"/>
	<path fill="none" stroke="#000000" stroke-width="2" stroke-linecap="round" stroke-linejoin="round" stroke-miterlimit="10" d="
		M746.8,415.1c-0.8,0.4-1.8,0.4-2.7,0.4c-2.5,0-5.2,0.2-7.6,0.3c0-2.2,0-4.3,0-6.5c3.3,0.3,6.7,0.1,10,0
		C746.5,410.9,746.8,413.4,746.8,415.1z"/>
	<path fill="none" stroke="#000000" stroke-width="2" stroke-linecap="round" stroke-linejoin="round" stroke-miterlimit="10" d="
		M766.8,415.4c-1.7,0.1-3.1,0-4.8,0.1c0-1.7,0-3.3,0-5c1.6-0.1,3.2,0.3,4.8,0.2C766.8,412.1,766.8,414,766.8,415.4z"/>
	<path fill="none" stroke="#000000" stroke-width="2" stroke-linecap="round" stroke-linejoin="round" stroke-miterlimit="10" d="
		M773.5,414.8c-1.2-0.1-2.6,0-3.8,0.3c0-1.4,0-2.8,0-4.3c1.3,0,2.7,0.3,4,0.3C773.8,412.3,773.5,413.5,773.5,414.8z"/>
	<path fill="none" stroke="#000000" stroke-width="2" stroke-linecap="round" stroke-linejoin="round" stroke-miterlimit="10" d="
		M633,412.5c8.7-0.4,17.5-0.8,26.2-1.1c0.8,0,1.5-0.1,2.3-0.1c9.8-0.4,19.5-0.8,29.3-1.3c0.8,0,1.7-0.1,2.5-0.1
		c9.5-0.4,19.1-0.8,28.7-1.2"/>
	<path fill="none" stroke="#000000" stroke-width="2" stroke-linecap="round" stroke-linejoin="round" stroke-miterlimit="10" d="
		M608.6,413.7C608.6,413.8,608.6,413.8,608.6,413.7c0.3,8.3,0.7,16.5,1,24.8c0.7,0,1.3,0,2,0c6.3-0.1,12.9-0.5,19.1-0.5
		c0.9,0,1.8,0,2.7,0c8.7-0.2,17.4-1.2,26.1-1.3c0.2,0,0.5,0,0.7,0c0.6,0,1.3,0,1.9,0c2.1,0,4.3,0,6.4,0c3.3,0,6.7,0.1,10,0.1
		c4.2,0.1,8.4,0.1,12.7,0.2c0.2,0,0.4,0,0.6,0c0.6,0,1.2,0,1.8,0c2.1,0,4.3,0,6.4,0c3.5-0.1,6.9-0.2,10.4-0.3
		c2.6-0.1,5.1-0.2,7.7-0.4c2.2-0.1,4.4-0.2,6.5-0.3"/>
	<path fill="none" stroke="#000000" stroke-width="2" stroke-linecap="round" stroke-linejoin="round" stroke-miterlimit="10" d="
		M633,412.8c0.5,8.3,0.7,16.7,0.5,25"/>
	<path fill="none" stroke="#000000" stroke-width="2" stroke-linecap="round" stroke-linejoin="round" stroke-miterlimit="10" d="
		M513.5,435.8L513.5,435.8c0.1,2.1,0.2,4.2,0.3,6.3c6.3,0.1,13,0.6,19.2,0.4"/>
	<path fill="none" stroke="#000000" stroke-width="2" stroke-linecap="round" stroke-linejoin="round" stroke-miterlimit="10" d="
		M535,442.8c0.1,0,0.1,0,0.2,0c5.5,0.2,10.9,0.3,16.4,0.3c2.5,0,5,0.1,7.5,0.1s5,0,7.5,0c7.4,0,14.8-0.1,22.2-0.3c0.1,0,0.1,0,0.2,0
		c7.6-0.2,15.5-2.1,22.7-4.2"/>
	<path fill="none" stroke="#000000" stroke-width="2" stroke-linecap="round" stroke-linejoin="round" stroke-miterlimit="10" d="
		M551.6,443.2L551.6,443.2c0.2-8.1-0.4-16.2-0.2-24.3c2.3,0.2,4.8,0.3,7.2,0.4c2.6,0.1,5.2,0,7.7-0.1c0.1,7.9,0.1,16.2,0.3,24.1v0.1
		"/>
	<path fill="none" stroke="#000000" stroke-width="2" stroke-linecap="round" stroke-linejoin="round" stroke-miterlimit="10" d="
		M558.7,419.5c0.1,7.9,0.3,15.8,0.4,23.7v0.1"/>
	<path fill="none" stroke="#000000" stroke-width="2" stroke-linecap="round" stroke-linejoin="round" stroke-miterlimit="10" d="
		M556.3,414.4c3.1,0,6.2,0,9.3-0.1c-0.1-2.3-0.3-4.6-0.5-6.9c-0.2-2-0.3-4.1-0.4-6.1c-3.6,0.1-7.3,0.3-10.9,0.4
		c-1,0-1.9-0.5-2.8-0.3c0,2.2,0.1,4.4,0.1,6.5s0.1,4.3,0.1,6.5C552.8,414.5,554.5,414.5,556.3,414.4z"/>
	<path fill="none" stroke="#000000" stroke-width="2" stroke-linecap="round" stroke-linejoin="round" stroke-miterlimit="10" d="
		M551.7,408c1.6,0,3.1,0,4.7-0.1c1.4,0,2.8-0.1,4.2-0.2c1.5-0.1,3-0.2,4.5-0.3"/>
	<path fill="none" stroke="#000000" stroke-width="2" stroke-linecap="round" stroke-linejoin="round" stroke-miterlimit="10" d="
		M556.1,402.5c0.1,1.8,0.2,3.6,0.2,5.5c0,2,0,4-0.1,6"/>
	<path fill="none" stroke="#000000" stroke-width="2" stroke-linecap="round" stroke-linejoin="round" stroke-miterlimit="10" d="
		M560.3,402.5c0.1,1.8,0.2,3.5,0.2,5.3c0.1,2,0.1,4,0,6.1"/>
	<path fill="none" stroke="#000000" stroke-width="2" stroke-linecap="round" stroke-linejoin="round" stroke-miterlimit="10" d="
		M572.8,423.5c-1.4,0-2.8,0-4.2,0c0-1.1,0-2.2,0-3.3c1.4-0.1,2.5,0,4,0C572.6,421.1,572.7,422.6,572.8,423.5z"/>
	<path fill="none" stroke="#000000" stroke-width="2" stroke-linecap="round" stroke-linejoin="round" stroke-miterlimit="10" d="
		M607.3,414.9c-1.4,0.1-2.3,0.3-3.7,0.3c-0.1-2.2-0.2-4.4-0.3-6.7c-0.1-2-0.1-4-0.2-6c3-0.1,6.7-0.4,9.7-0.5c0,1.8,0,4.1,0,6.2
		c0,0.6,0,1.3,0,1.8"/>
	<path fill="none" stroke="#000000" stroke-width="2" stroke-linecap="round" stroke-linejoin="round" stroke-miterlimit="10" d="
		M603.8,408.5c1,0,1.9-0.1,2.8-0.1c1.1,0,2.2-0.1,3.3-0.1c0.9,0,1.8-0.1,2.7-0.1"/>
	<path fill="none" stroke="#000000" stroke-width="2" stroke-linecap="round" stroke-linejoin="round" stroke-miterlimit="10" d="
		M606.7,403.2c0,1.7,0,3.5,0,5.2s0,3.4,0,5.1"/>
	<path fill="none" stroke="#000000" stroke-width="2" stroke-linecap="round" stroke-linejoin="round" stroke-miterlimit="10" d="
		M609.8,402.7c0.1,1.9,0.2,3.7,0.2,5.6c0,1.1,0,2.2,0,3.2"/>
	<path fill="none" stroke="#000000" stroke-width="2" stroke-linecap="round" stroke-linejoin="round" stroke-miterlimit="10" d="
		M621.1,432.2c1.9,0,3.8,0,5.7,0.1c0.1-2.2,0.1-4.5,0.1-6.7c0-2.2-0.2-4.4-0.4-6.5c-2,0.1-3.8,0.1-5.5,0.1c-2,0-3.9-0.1-6-0.2
		c0,2.1,0.1,4.2,0.1,6.3c0,2.2,0.1,4.5,0.1,6.7c0.6,0.1,1.5,0.1,2.1,0.1C618.5,432.2,619.8,432.2,621.1,432.2z"/>
	<path fill="none" stroke="#000000" stroke-width="2" stroke-linecap="round" stroke-linejoin="round" stroke-miterlimit="10" d="
		M615.2,425.3c2,0.2,3.9,0.4,5.9,0.4c1.9,0.1,3.9,0,5.8-0.1"/>
	<path fill="none" stroke="#000000" stroke-width="2" stroke-linecap="round" stroke-linejoin="round" stroke-miterlimit="10" d="
		M621,419.2c0,2.2,0,4.3,0.1,6.5c0,2.1,0,4.2,0.1,6.3"/>
	<path fill="none" stroke="#000000" stroke-width="2" stroke-linecap="round" stroke-linejoin="round" stroke-miterlimit="10" d="
		M659.2,411.5c0.4,8.4,0.5,16.8,0.4,25.2v0.1"/>
	<path fill="none" stroke="#000000" stroke-width="2" stroke-linecap="round" stroke-linejoin="round" stroke-miterlimit="10" d="
		M661.5,411.5c0.2,8.4,0.4,16.8,0.7,25.2"/>
	<path fill="none" stroke="#000000" stroke-width="2" stroke-linecap="round" stroke-linejoin="round" stroke-miterlimit="10" d="
		M690.8,410L690.8,410c0.1,9,0.3,18,0.5,27c0,0.1,0,0.2,0,0.3"/>
	<path fill="none" stroke="#000000" stroke-width="2" stroke-linecap="round" stroke-linejoin="round" stroke-miterlimit="10" d="
		M693.3,409.5c0,0.1,0,0.3,0,0.4c0.1,9,0.2,17.9,0.4,26.9"/>
	<path fill="none" stroke="#000000" stroke-width="2" stroke-linecap="round" stroke-linejoin="round" stroke-miterlimit="10" d="
		M718.2,436.5v-0.1c-0.4-7.9-0.3-15.8-0.6-23.7c2.5,0,4.9-0.3,7.4-0.3"/>
	<path fill="none" stroke="#000000" stroke-width="2" stroke-linecap="round" stroke-linejoin="round" stroke-miterlimit="10" d="
		M725,424.7c-1.2,0-2.8-0.1-4.1-0.1c-0.1-1.2-0.1-2.5-0.2-3.7c-0.1-2-0.2-4-0.3-6.1c1.4,0,3.1-0.2,4.5-0.2"/>
	<path fill="none" stroke="#000000" stroke-width="2" stroke-linecap="round" stroke-linejoin="round" stroke-miterlimit="10" d="
		M700.1,436.8c-0.4-7.9-0.4-15.8-0.3-23.7c3.6,0.1,7,0,10.6,0c-0.1,7.6,0.1,15.9,0,23.5v0.1"/>
	<path fill="none" stroke="#000000" stroke-width="2" stroke-linecap="round" stroke-linejoin="round" stroke-miterlimit="10" d="
		M707.7,425.3c-0.1-3.2-0.1-7-0.2-10.2c-1.4-0.1-3.2,0-4.6,0.2c0.1,3.3,0.3,6.6,0.4,9.8C704.6,425.5,706.5,425.8,707.7,425.3z"/>
	<path fill="none" stroke="#000000" stroke-width="2" stroke-linecap="round" stroke-linejoin="round" stroke-miterlimit="10" d="
		M668.6,436.7c-0.2-7.3,0.1-14.7-0.6-22c3.2-0.4,6.6-0.5,9.7-0.3c0.2,7.3,0.8,15,1,22.3"/>
	<path fill="none" stroke="#000000" stroke-width="2" stroke-linecap="round" stroke-linejoin="round" stroke-miterlimit="10" d="
		M674.8,425.7c-1-0.1-2.3,0-3.3,0.1c-0.1-3-0.3-6-0.5-9c1.1-0.2,2.5-0.2,3.6-0.1C674.8,419.3,674.7,423.1,674.8,425.7z"/>
</g>
</svg>
